<svg width="21" height="21" viewBox="0 0 21 21" fill="none" xmlns="http://www.w3.org/2000/svg">
<g clip-path="url(#clip0_9_274)">
<path d="M10.3401 7.17411L13.3463 10.1802L13.3606 10.0228C13.3606 8.44335 12.077 7.15979 10.4976 7.15979L10.3401 7.17411Z" fill="black"/>
<path d="M10.4976 5.25116C13.1316 5.25116 15.2693 7.38887 15.2693 10.0228C15.2693 10.6384 15.1452 11.2253 14.9305 11.7645L17.7219 14.5559C19.1629 13.3534 20.2986 11.7979 21 10.0228C19.3443 5.83333 15.2741 2.86536 10.4977 2.86536C9.16158 2.86536 7.88281 3.10392 6.69467 3.53337L8.75602 5.58993C9.29516 5.38 9.88207 5.25116 10.4976 5.25116Z" fill="black"/>
<path d="M0.954313 2.65061L3.13018 4.82648L3.56442 5.26071C1.98977 6.49179 0.744376 8.12848 0 10.0228C1.651 14.2123 5.72597 17.1803 10.4976 17.1803C11.9769 17.1803 13.3892 16.894 14.6824 16.3738L15.088 16.7794L17.8699 19.5661L19.0866 18.3541L2.17108 1.43384L0.954313 2.65061ZM6.23178 7.92329L7.70622 9.39772C7.66327 9.60292 7.63464 9.80807 7.63464 10.0228C7.63464 11.6022 8.9182 12.8858 10.4976 12.8858C10.7124 12.8858 10.9175 12.8572 11.118 12.8142L12.5924 14.2886C11.9577 14.6036 11.2516 14.7945 10.4976 14.7945C7.86368 14.7945 5.72597 12.6567 5.72597 10.0228C5.72597 9.26889 5.91685 8.56267 6.23178 7.92329Z" fill="black"/>
</g>
<defs>
<clipPath id="clip0_9_274">
<rect width="21" height="21" fill="white"/>
</clipPath>
</defs>
</svg>
