<svg width="100" height="30" viewBox="0 0 100 30" fill="none" xmlns="http://www.w3.org/2000/svg">
<path d="M12.66 7.88L7.88 17.06V22H5.04V17.06L0.24 7.88H3.48L6.48 14.06L9.48 7.88H12.66ZM19.2906 10.78C20.3706 10.78 21.3373 11.0067 22.1906 11.46C23.0573 11.9133 23.7373 12.5733 24.2306 13.44C24.724 14.2933 24.9706 15.3 24.9706 16.46C24.9706 17.62 24.724 18.6267 24.2306 19.48C23.7373 20.3333 23.0573 20.9933 22.1906 21.46C21.3373 21.9133 20.3706 22.14 19.2906 22.14C18.2106 22.14 17.2373 21.9133 16.3706 21.46C15.5173 20.9933 14.844 20.3333 14.3506 19.48C13.8573 18.6267 13.6106 17.62 13.6106 16.46C13.6106 15.3 13.8573 14.2933 14.3506 13.44C14.844 12.5733 15.5173 11.9133 16.3706 11.46C17.2373 11.0067 18.2106 10.78 19.2906 10.78ZM19.2906 13.22C18.504 13.22 17.8373 13.5 17.2906 14.06C16.744 14.6067 16.4706 15.4067 16.4706 16.46C16.4706 17.5133 16.744 18.32 17.2906 18.88C17.8373 19.4267 18.504 19.7 19.2906 19.7C20.0773 19.7 20.744 19.4267 21.2906 18.88C21.8373 18.32 22.1106 17.5133 22.1106 16.46C22.1106 15.4067 21.8373 14.6067 21.2906 14.06C20.744 13.5 20.0773 13.22 19.2906 13.22ZM37.5636 10.92V22H34.7436V19.76C34.4503 20.5067 33.9636 21.0933 33.2836 21.52C32.6169 21.9333 31.8436 22.14 30.9636 22.14C29.6836 22.14 28.6636 21.72 27.9036 20.88C27.1436 20.04 26.7636 18.8667 26.7636 17.36V10.92H29.5636V17.04C29.5636 17.92 29.7903 18.6067 30.2436 19.1C30.6969 19.58 31.3103 19.82 32.0836 19.82C32.8969 19.82 33.5436 19.56 34.0236 19.04C34.5036 18.52 34.7436 17.7733 34.7436 16.8V10.92H37.5636ZM42.9477 13.04C43.361 12.3333 43.9077 11.78 44.5877 11.38C45.2677 10.9667 46.0277 10.76 46.8677 10.76V13.78H46.0477C43.981 13.78 42.9477 14.74 42.9477 16.66V22H40.1277V10.92H42.9477V13.04ZM55.6039 19.84H60.3439V22H52.7839V7.88H55.6039V19.84ZM67.1422 10.78C68.2222 10.78 69.1889 11.0067 70.0422 11.46C70.9089 11.9133 71.5889 12.5733 72.0822 13.44C72.5755 14.2933 72.8222 15.3 72.8222 16.46C72.8222 17.62 72.5755 18.6267 72.0822 19.48C71.5889 20.3333 70.9089 20.9933 70.0422 21.46C69.1889 21.9133 68.2222 22.14 67.1422 22.14C66.0622 22.14 65.0889 21.9133 64.2222 21.46C63.3689 20.9933 62.6955 20.3333 62.2022 19.48C61.7089 18.6267 61.4622 17.62 61.4622 16.46C61.4622 15.3 61.7089 14.2933 62.2022 13.44C62.6955 12.5733 63.3689 11.9133 64.2222 11.46C65.0889 11.0067 66.0622 10.78 67.1422 10.78ZM67.1422 13.22C66.3555 13.22 65.6889 13.5 65.1422 14.06C64.5955 14.6067 64.3222 15.4067 64.3222 16.46C64.3222 17.5133 64.5955 18.32 65.1422 18.88C65.6889 19.4267 66.3555 19.7 67.1422 19.7C67.9289 19.7 68.5955 19.4267 69.1422 18.88C69.6889 18.32 69.9622 17.5133 69.9622 16.46C69.9622 15.4067 69.6889 14.6067 69.1422 14.06C68.5955 13.5 67.9289 13.22 67.1422 13.22ZM79.1552 10.78C80.0885 10.78 80.8885 11 81.5552 11.44C82.2218 11.88 82.6952 12.4733 82.9752 13.22V10.92H85.7752V22.04C85.7752 23.0667 85.5685 23.9867 85.1552 24.8C84.7552 25.6267 84.1485 26.2733 83.3352 26.74C82.5352 27.2067 81.5618 27.44 80.4152 27.44C78.8152 27.44 77.5218 27.06 76.5352 26.3C75.5485 25.54 74.9485 24.5067 74.7352 23.2H77.5152C77.6752 23.76 77.9818 24.1933 78.4352 24.5C78.9018 24.82 79.4952 24.98 80.2152 24.98C81.0418 24.98 81.7085 24.7333 82.2152 24.24C82.7218 23.76 82.9752 23.0267 82.9752 22.04V19.68C82.6952 20.4267 82.2218 21.0267 81.5552 21.48C80.8885 21.92 80.0885 22.14 79.1552 22.14C78.2218 22.14 77.3818 21.9133 76.6352 21.46C75.8885 21.0067 75.3018 20.3533 74.8752 19.5C74.4618 18.6333 74.2552 17.62 74.2552 16.46C74.2552 15.3 74.4618 14.2933 74.8752 13.44C75.3018 12.5733 75.8885 11.9133 76.6352 11.46C77.3818 11.0067 78.2218 10.78 79.1552 10.78ZM80.0352 13.24C79.1552 13.24 78.4485 13.5267 77.9152 14.1C77.3818 14.6733 77.1152 15.46 77.1152 16.46C77.1152 17.46 77.3818 18.2467 77.9152 18.82C78.4485 19.38 79.1552 19.66 80.0352 19.66C80.8885 19.66 81.5885 19.3733 82.1352 18.8C82.6952 18.2133 82.9752 17.4333 82.9752 16.46C82.9752 15.4733 82.6952 14.6933 82.1352 14.12C81.5885 13.5333 80.8885 13.24 80.0352 13.24ZM93.4508 10.78C94.5308 10.78 95.4974 11.0067 96.3508 11.46C97.2174 11.9133 97.8974 12.5733 98.3908 13.44C98.8841 14.2933 99.1308 15.3 99.1308 16.46C99.1308 17.62 98.8841 18.6267 98.3908 19.48C97.8974 20.3333 97.2174 20.9933 96.3508 21.46C95.4974 21.9133 94.5308 22.14 93.4508 22.14C92.3708 22.14 91.3974 21.9133 90.5308 21.46C89.6774 20.9933 89.0041 20.3333 88.5108 19.48C88.0174 18.6267 87.7708 17.62 87.7708 16.46C87.7708 15.3 88.0174 14.2933 88.5108 13.44C89.0041 12.5733 89.6774 11.9133 90.5308 11.46C91.3974 11.0067 92.3708 10.78 93.4508 10.78ZM93.4508 13.22C92.6641 13.22 91.9974 13.5 91.4508 14.06C90.9041 14.6067 90.6308 15.4067 90.6308 16.46C90.6308 17.5133 90.9041 18.32 91.4508 18.88C91.9974 19.4267 92.6641 19.7 93.4508 19.7C94.2374 19.7 94.9041 19.4267 95.4508 18.88C95.9974 18.32 96.2708 17.5133 96.2708 16.46C96.2708 15.4067 95.9974 14.6067 95.4508 14.06C94.9041 13.5 94.2374 13.22 93.4508 13.22Z" fill="black"/>
</svg>
